<svg width="22" height="28" viewBox="0 0 22 28" fill="none" xmlns="http://www.w3.org/2000/svg">
<path d="M19.4375 25.25H13.6414C14.6166 24.3808 15.5362 23.4512 16.395 22.4667C19.612 18.767 21.3125 14.8668 21.3125 11.1875C21.3125 8.45246 20.226 5.82943 18.292 3.89546C16.3581 1.96149 13.735 0.875 11 0.875C8.26496 0.875 5.64193 1.96149 3.70796 3.89546C1.77399 5.82943 0.6875 8.45246 0.6875 11.1875C0.6875 14.8668 2.38798 18.767 5.60503 22.4667C6.46377 23.4512 7.38345 24.3808 8.35862 25.25H2.5625C2.31386 25.25 2.0754 25.3488 1.89959 25.5246C1.72377 25.7004 1.625 25.9389 1.625 26.1875C1.625 26.4361 1.72377 26.6746 1.89959 26.8504C2.0754 27.0262 2.31386 27.125 2.5625 27.125H19.4375C19.6861 27.125 19.9246 27.0262 20.1004 26.8504C20.2762 26.6746 20.375 26.4361 20.375 26.1875C20.375 25.9389 20.2762 25.7004 20.1004 25.5246C19.9246 25.3488 19.6861 25.25 19.4375 25.25ZM11 7.4375C11.7417 7.4375 12.4667 7.65743 13.0834 8.06949C13.7001 8.48154 14.1808 9.06721 14.4646 9.75244C14.7484 10.4377 14.8227 11.1917 14.678 11.9191C14.5333 12.6465 14.1761 13.3147 13.6517 13.8392C13.1272 14.3636 12.459 14.7208 11.7316 14.8654C11.0042 15.0101 10.2502 14.9359 9.56497 14.652C8.87974 14.3682 8.29408 13.8876 7.88202 13.2709C7.46996 12.6542 7.25003 11.9292 7.25003 11.1875C7.25003 10.695 7.34702 10.2074 7.53547 9.75243C7.72393 9.29746 8.00015 8.88406 8.34837 8.53584C8.69659 8.18762 9.10999 7.9114 9.56496 7.72294C10.0199 7.53449 10.5076 7.4375 11 7.4375Z" fill="#046DBF"/>
</svg>
